<svg id="Banner" xmlns="http://www.w3.org/2000/svg" viewBox="0 0 1920 1080"><defs><style>.cls-1{fill:#3949ab;}.cls-2,.cls-3{fill:#ffd54f;}.cls-2,.cls-5{opacity:0.8;}.cls-4{opacity:0.18;}.cls-6{fill:#fff;}</style></defs><rect id="Background" class="cls-1" width="1920" height="1080"/><g id="Logo"><path class="cls-2" d="M633.8,652l57.69-178.47a5,5,0,0,0-4.76-6.54H571.36a5,5,0,0,0-4.75,6.54L624.29,652A5,5,0,0,0,633.8,652Z"/><rect class="cls-3" x="501" y="425" width="257" height="51" rx="10"/></g><g id="Layer_9" data-name="Layer 9" class="cls-4"><rect x="61.95" y="-2.22" width="878" height="107.31" rx="53.66" transform="translate(99.38 355.3) rotate(-42.98)"/><rect x="-319.35" y="104.73" width="878" height="107.31" rx="53.66" transform="translate(-75.86 124.07) rotate(-42.98)"/><rect x="-628.35" y="640.73" width="878" height="107.31" rx="53.66" transform="translate(-524.18 57.27) rotate(-42.98)"/><rect x="984.57" y="1054.09" width="878" height="107.31" rx="53.66" transform="translate(-373.11 1267.72) rotate(-42.98)"/><rect x="1671.27" y="414.05" width="878" height="107.31" rx="53.66" transform="translate(247.49 1564.08) rotate(-42.98)"/></g><g class="cls-5"><path class="cls-3" d="M877.29,613.37a28.34,28.34,0,0,0-5.74-.71c-3.81,0-5.71,2-5.71,6v4.28h10.7v3.53h-10.7v17.33h-4.31V626.45h-7.85v-3.53h7.85v-4q0-9.75,10.17-9.75a30,30,0,0,1,5.59.58Z"/><path class="cls-3" d="M899.68,643.78l-.1-3.28a13.43,13.43,0,0,1-4.05,2.85,10.92,10.92,0,0,1-4.31.87,10.77,10.77,0,0,1-3.58-.53,6.73,6.73,0,0,1-2.44-1.48,5.62,5.62,0,0,1-1.41-2.2,8.08,8.08,0,0,1-.45-2.74,6.8,6.8,0,0,1,2.74-5.75q2.73-2.09,8.08-2.08h5.06V627.3a4.56,4.56,0,0,0-1.39-3.47,6,6,0,0,0-4.23-1.3,18,18,0,0,0-4.07.47,27.42,27.42,0,0,0-4.15,1.31v-3.82c.54-.19,1.13-.38,1.79-.57s1.35-.35,2.08-.5,1.49-.26,2.28-.35a21.49,21.49,0,0,1,2.41-.13,15.26,15.26,0,0,1,4,.48,8.12,8.12,0,0,1,3,1.49,6.46,6.46,0,0,1,1.89,2.5,9,9,0,0,1,.65,3.55v16.82Zm-.46-11.11h-5.38a10.3,10.3,0,0,0-2.72.32,5.17,5.17,0,0,0-1.87.9,3.49,3.49,0,0,0-1.08,1.4,4.46,4.46,0,0,0-.36,1.83,4.34,4.34,0,0,0,.22,1.35,3,3,0,0,0,.71,1.14,3.2,3.2,0,0,0,1.26.79,5.3,5.3,0,0,0,1.9.3,8,8,0,0,0,3.34-.89,16.37,16.37,0,0,0,4-2.81Z"/><path class="cls-3" d="M931.7,637.12a5.84,5.84,0,0,1-.44,2.31,6,6,0,0,1-1.19,1.81,7.3,7.3,0,0,1-1.75,1.35,12.71,12.71,0,0,1-2.13.93,13.94,13.94,0,0,1-2.32.53,16.94,16.94,0,0,1-2.33.17A42.48,42.48,0,0,1,917,644a30.49,30.49,0,0,1-4.08-.7v-3.89a34.91,34.91,0,0,0,4.26.92,28.52,28.52,0,0,0,4.21.32,9.42,9.42,0,0,0,4.49-.83,2.59,2.59,0,0,0,1.46-2.36,3,3,0,0,0-.23-1.18,2.53,2.53,0,0,0-.84-1,7.71,7.71,0,0,0-1.88-1c-.85-.34-2-.73-3.49-1.17a24.62,24.62,0,0,1-3-1.1,10.06,10.06,0,0,1-2.42-1.47,6.32,6.32,0,0,1-1.61-2,6,6,0,0,1-.58-2.69,6.29,6.29,0,0,1,.47-2.24,6.1,6.1,0,0,1,1.62-2.26,8.88,8.88,0,0,1,3.09-1.74,14.72,14.72,0,0,1,4.86-.69c1,0,2,0,3.19.15a33.87,33.87,0,0,1,3.64.55v3.77a37.67,37.67,0,0,0-3.78-.72,25.3,25.3,0,0,0-3.1-.23,12.52,12.52,0,0,0-2.66.24,5.87,5.87,0,0,0-1.75.67,2.6,2.6,0,0,0-1,1,2.85,2.85,0,0,0,0,2.42,2.82,2.82,0,0,0,1,1,9.43,9.43,0,0,0,1.93,1q1.25.49,3.24,1.08a24.32,24.32,0,0,1,3.64,1.33,9.18,9.18,0,0,1,2.41,1.54,5,5,0,0,1,1.33,1.92A7,7,0,0,1,931.7,637.12Z"/><path class="cls-3" d="M960.41,643.44a20.48,20.48,0,0,1-3,.53c-1,.1-2.06.15-3.11.15q-4.59,0-6.86-2.08c-1.5-1.38-2.26-3.51-2.26-6.38V622.92h-6.83v-3.55h6.83v-6.71l4.23-1.09v7.8h11v3.55h-11v12.4a5.13,5.13,0,0,0,1.4,3.93,5.84,5.84,0,0,0,4.12,1.3,20.08,20.08,0,0,0,2.56-.18,24.12,24.12,0,0,0,2.89-.57Z"/><path class="cls-3" d="M978.72,636.13a3.91,3.91,0,0,1,1.56.31,3.75,3.75,0,0,1,1.29.88,4.18,4.18,0,0,1,.87,1.3,4,4,0,0,1,.31,1.59,3.91,3.91,0,0,1-.31,1.56,4.16,4.16,0,0,1-.87,1.27,3.84,3.84,0,0,1-1.29.86,4,4,0,0,1-3.14,0,3.9,3.9,0,0,1-1.28-.86,4,4,0,0,1-.86-1.27,3.92,3.92,0,0,1-.32-1.56,4.15,4.15,0,0,1,1.18-2.89,3.8,3.8,0,0,1,1.28-.88A3.91,3.91,0,0,1,978.72,636.13Z"/><path class="cls-3" d="M1045.18,637.12a5.84,5.84,0,0,1-.43,2.31,6,6,0,0,1-1.2,1.81,7.11,7.11,0,0,1-1.75,1.35,12.26,12.26,0,0,1-2.12.93,14.06,14.06,0,0,1-2.33.53,16.94,16.94,0,0,1-2.33.17,42.75,42.75,0,0,1-4.56-.22,30.62,30.62,0,0,1-4.07-.7v-3.89a34.76,34.76,0,0,0,4.25.92,28.62,28.62,0,0,0,4.21.32,9.44,9.44,0,0,0,4.5-.83,2.59,2.59,0,0,0,1.46-2.36,3,3,0,0,0-.23-1.18,2.72,2.72,0,0,0-.84-1,8,8,0,0,0-1.89-1c-.85-.34-2-.73-3.49-1.17a25.23,25.23,0,0,1-3-1.1,10.06,10.06,0,0,1-2.42-1.47,6.29,6.29,0,0,1-1.6-2,5.83,5.83,0,0,1-.58-2.69,6.08,6.08,0,0,1,.47-2.24,6,6,0,0,1,1.62-2.26,8.92,8.92,0,0,1,3.08-1.74,14.74,14.74,0,0,1,4.87-.69q1.43,0,3.18.15a34,34,0,0,1,3.65.55v3.77a37.67,37.67,0,0,0-3.78-.72,25.44,25.44,0,0,0-3.1-.23,12.45,12.45,0,0,0-2.66.24,5.66,5.66,0,0,0-1.75.67,2.55,2.55,0,0,0-1.26,2.23,2.5,2.5,0,0,0,1.21,2.22,9.17,9.17,0,0,0,1.93,1c.83.33,1.9.69,3.23,1.08a24.48,24.48,0,0,1,3.65,1.33,9.35,9.35,0,0,1,2.41,1.54,5.1,5.1,0,0,1,1.32,1.92A6.81,6.81,0,0,1,1045.18,637.12Z"/><path class="cls-3" d="M1062.54,622.88h-7.22v-3.51h11.5v20.89h7.27v3.52h-19.57v-3.52h8Zm1.48-13.74a3.37,3.37,0,0,1,1.32.25,3.32,3.32,0,0,1,1.06.72,3.43,3.43,0,0,1,.7,1.06,3.28,3.28,0,0,1,.26,1.3,3.34,3.34,0,0,1-.26,1.29,3.48,3.48,0,0,1-.7,1.07,3.29,3.29,0,0,1-1.06.71,3.46,3.46,0,0,1-2.63,0,3.19,3.19,0,0,1-1.06-.71,3.48,3.48,0,0,1-.7-1.07,3.34,3.34,0,0,1-.26-1.29,3.28,3.28,0,0,1,.26-1.3,3.43,3.43,0,0,1,.7-1.06,3.21,3.21,0,0,1,1.06-.72A3.36,3.36,0,0,1,1064,609.14Z"/><path class="cls-3" d="M1100,643.78V626.25a15.86,15.86,0,0,0-.09-1.87,4.43,4.43,0,0,0-.27-1.15,1.22,1.22,0,0,0-.46-.6,1.36,1.36,0,0,0-.69-.17,1.53,1.53,0,0,0-.9.29,4.16,4.16,0,0,0-.89,1,16.24,16.24,0,0,0-1,1.74c-.38.72-.84,1.61-1.35,2.66v15.68h-3.87V626.72c0-.89,0-1.62-.08-2.17a5.3,5.3,0,0,0-.27-1.29,1.23,1.23,0,0,0-.48-.63,1.39,1.39,0,0,0-.7-.17,1.57,1.57,0,0,0-.83.24,3.78,3.78,0,0,0-.86.88,13.27,13.27,0,0,0-1.06,1.73q-.59,1.1-1.38,2.79v15.68h-3.89V619.37h3.23l.19,4.65a22.86,22.86,0,0,1,1.23-2.36,7.8,7.8,0,0,1,1.23-1.57,4,4,0,0,1,1.35-.87,4.28,4.28,0,0,1,1.59-.28,3.61,3.61,0,0,1,3,1.28,6.4,6.4,0,0,1,1,4c.39-.84.77-1.59,1.15-2.25a8.36,8.36,0,0,1,1.2-1.65,4.45,4.45,0,0,1,1.42-1,4.25,4.25,0,0,1,1.8-.35c3.06,0,4.6,2.35,4.6,7.07v17.77Z"/><path class="cls-3" d="M1131.83,631.14a16.14,16.14,0,0,1-.91,5.69,11.21,11.21,0,0,1-2.52,4,10.21,10.21,0,0,1-3.79,2.4,13.56,13.56,0,0,1-4.74.81,22.39,22.39,0,0,1-2.32-.13,18.1,18.1,0,0,1-2.35-.41v10.21H1111V619.37h3.77l.27,4.09a10.78,10.78,0,0,1,3.89-3.51,9.91,9.91,0,0,1,4.47-1,7.49,7.49,0,0,1,3.67.87,7.61,7.61,0,0,1,2.65,2.47,11.57,11.57,0,0,1,1.6,3.84A21.52,21.52,0,0,1,1131.83,631.14Zm-4.33.19a20.18,20.18,0,0,0-.28-3.52,9,9,0,0,0-.89-2.75,4.83,4.83,0,0,0-1.55-1.78,3.93,3.93,0,0,0-2.26-.65,5.49,5.49,0,0,0-1.63.26,6.48,6.48,0,0,0-1.71.85,11.94,11.94,0,0,0-1.88,1.58,25.88,25.88,0,0,0-2.1,2.44V639.6a14.09,14.09,0,0,0,2.46.77,12.23,12.23,0,0,0,2.52.28,6.67,6.67,0,0,0,5.38-2.32Q1127.49,636,1127.5,631.33Z"/><path class="cls-3" d="M1147.66,612.91h-7.22v-3.48h11.49v30.83h7.27v3.52h-19.57v-3.52h8Z"/><path class="cls-3" d="M1188.33,630.29c0,.6,0,1.1,0,1.51s0,.78-.07,1.14h-17.14a7.61,7.61,0,0,0,2.09,5.75,8.38,8.38,0,0,0,6,2c.71,0,1.43,0,2.14-.09s1.4-.13,2.07-.23,1.3-.21,1.91-.33,1.17-.25,1.69-.4v3.48a31.66,31.66,0,0,1-3.91.79,33,33,0,0,1-4.51.3,15.21,15.21,0,0,1-5.39-.85,9.21,9.21,0,0,1-3.71-2.47,10.23,10.23,0,0,1-2.14-4,18.83,18.83,0,0,1-.69-5.31,15.63,15.63,0,0,1,.74-4.88,12.12,12.12,0,0,1,2.16-4,10.25,10.25,0,0,1,8.18-3.78,11.85,11.85,0,0,1,4.53.8,9,9,0,0,1,3.31,2.27,9.77,9.77,0,0,1,2.05,3.58A15,15,0,0,1,1188.33,630.29Zm-4.4-.61a9.19,9.19,0,0,0-.32-3,6.32,6.32,0,0,0-1.2-2.32,5.63,5.63,0,0,0-2-1.52,6.89,6.89,0,0,0-2.82-.54,5.71,5.71,0,0,0-4.5,2,7.78,7.78,0,0,0-1.34,2.33,10.8,10.8,0,0,0-.63,3Z"/><path class="cls-3" d="M1205.69,636.13a4,4,0,0,1,1.57.31,3.8,3.8,0,0,1,1.28.88,4,4,0,0,1,1.18,2.89,3.91,3.91,0,0,1-.31,1.56,4,4,0,0,1-.87,1.27,3.9,3.9,0,0,1-1.28.86,3.84,3.84,0,0,1-1.57.32,3.75,3.75,0,0,1-1.58-.32,4,4,0,0,1-1.28-.86,4.13,4.13,0,0,1-.86-1.27,3.92,3.92,0,0,1-.32-1.56,4,4,0,0,1,.32-1.59,4.15,4.15,0,0,1,.86-1.3,3.9,3.9,0,0,1,2.86-1.19Z"/><path class="cls-3" d="M1261.14,622.88h-7.22v-3.51h11.5v20.89h7.27v3.52h-19.57v-3.52h8Zm1.48-13.74a3.41,3.41,0,0,1,1.32.25,3.32,3.32,0,0,1,1.06.72,3.62,3.62,0,0,1,.7,1.06,3.28,3.28,0,0,1,.26,1.3,3.34,3.34,0,0,1-.26,1.29,3.67,3.67,0,0,1-.7,1.07,3.29,3.29,0,0,1-1.06.71,3.41,3.41,0,0,1-1.32.26,3.37,3.37,0,0,1-1.31-.26,3.19,3.19,0,0,1-1.06-.71,3.48,3.48,0,0,1-.7-1.07,3.34,3.34,0,0,1-.26-1.29,3.28,3.28,0,0,1,.26-1.3,3.43,3.43,0,0,1,.7-1.06,3.21,3.21,0,0,1,1.06-.72A3.36,3.36,0,0,1,1262.62,609.14Z"/><path class="cls-3" d="M1281.2,619.37H1285l.17,3.94a18,18,0,0,1,2.06-2.1,11.51,11.51,0,0,1,2-1.35,7.37,7.37,0,0,1,2-.72,9.93,9.93,0,0,1,2.06-.2,7.16,7.16,0,0,1,5.71,2.22c1.28,1.48,1.93,3.72,1.93,6.7v15.92h-4.23V628.2a6.89,6.89,0,0,0-1.07-4.24,3.8,3.8,0,0,0-3.19-1.38,5.23,5.23,0,0,0-1.52.23,5.74,5.74,0,0,0-1.54.81,13.18,13.18,0,0,0-1.74,1.54q-.93,1-2.1,2.43v16.19h-4.23Z"/><path class="cls-3" d="M1327.15,622.83a6.46,6.46,0,0,1,1.06,2,7.7,7.7,0,0,1,.37,2.44,8.57,8.57,0,0,1-.69,3.47,7.69,7.69,0,0,1-2,2.68,8.9,8.9,0,0,1-3,1.74,11.74,11.74,0,0,1-3.88.62,12,12,0,0,1-2.87-.33,7.58,7.58,0,0,1-2.12-.81q-.45.68-.78,1.29a2.9,2.9,0,0,0-.31,1.36,1.8,1.8,0,0,0,.89,1.53,4.44,4.44,0,0,0,2.34.66l6.42.24a14.67,14.67,0,0,1,3.37.46,8.38,8.38,0,0,1,2.65,1.19,5.53,5.53,0,0,1,1.72,1.92,5.4,5.4,0,0,1,.62,2.65,7,7,0,0,1-.7,3.09,7.13,7.13,0,0,1-2.18,2.57,11.65,11.65,0,0,1-3.73,1.76,19.35,19.35,0,0,1-5.37.65,22.88,22.88,0,0,1-5-.47,11.14,11.14,0,0,1-3.41-1.31,5.09,5.09,0,0,1-2.56-4.54,5.81,5.81,0,0,1,.83-3.11,9.39,9.39,0,0,1,2.55-2.58,4,4,0,0,1-1.84-1.69,4.22,4.22,0,0,1-.44-1.1,4.58,4.58,0,0,1-.15-1.14,5.85,5.85,0,0,1,.74-2.9,15.6,15.6,0,0,1,1.77-2.48,12.42,12.42,0,0,1-.82-1.09,7,7,0,0,1-.6-1.16,6.85,6.85,0,0,1-.39-1.33,9,9,0,0,1-.14-1.64,8.37,8.37,0,0,1,.7-3.47,7.89,7.89,0,0,1,1.94-2.69,9,9,0,0,1,3-1.73,11.48,11.48,0,0,1,3.9-.62,11.91,11.91,0,0,1,1.72.12,9.76,9.76,0,0,1,1.46.31h8.85v3.46Zm-14.69,24.48a2.64,2.64,0,0,0,1.8,2.52,12.91,12.91,0,0,0,5,.79,13.48,13.48,0,0,0,3.39-.37,6.59,6.59,0,0,0,2.21-1,3.46,3.46,0,0,0,1.57-2.93,2.35,2.35,0,0,0-1.21-2.19,8.47,8.47,0,0,0-3.72-.82l-6.37-.22a8.68,8.68,0,0,0-1.33,1,4.39,4.39,0,0,0-.81,1,4,4,0,0,0-.42,1A4.72,4.72,0,0,0,1312.46,647.31Zm1.29-20a5.7,5.7,0,0,0,.39,2.14,4.62,4.62,0,0,0,1.09,1.65,5.06,5.06,0,0,0,1.67,1.06,5.81,5.81,0,0,0,2.13.38,5.71,5.71,0,0,0,2.25-.43,4.89,4.89,0,0,0,1.65-1.15,5.15,5.15,0,0,0,1-1.68,5.49,5.49,0,0,0,.35-2,5.7,5.7,0,0,0-.39-2.14,4.62,4.62,0,0,0-1.09-1.65,4.91,4.91,0,0,0-1.67-1.06,5.79,5.79,0,0,0-2.12-.38,5.47,5.47,0,0,0-2.25.44,5,5,0,0,0-1.65,1.15,5,5,0,0,0-1,1.67A5.72,5.72,0,0,0,1313.75,627.35Z"/><path class="cls-3" d="M1358.56,630.29c0,.6,0,1.1,0,1.51s0,.78-.07,1.14h-17.14a7.61,7.61,0,0,0,2.09,5.75,8.38,8.38,0,0,0,6,2c.71,0,1.43,0,2.14-.09s1.4-.13,2.07-.23,1.3-.21,1.91-.33,1.17-.25,1.69-.4v3.48a32,32,0,0,1-3.91.79,33,33,0,0,1-4.51.3,15.21,15.21,0,0,1-5.39-.85,9.21,9.21,0,0,1-3.71-2.47,10.1,10.1,0,0,1-2.14-4,18.83,18.83,0,0,1-.69-5.31,15.63,15.63,0,0,1,.74-4.88,12.12,12.12,0,0,1,2.16-4,10.25,10.25,0,0,1,8.18-3.78,11.8,11.8,0,0,1,4.52.8,9,9,0,0,1,3.32,2.27,9.77,9.77,0,0,1,2,3.58A15,15,0,0,1,1358.56,630.29Zm-4.4-.61a9.19,9.19,0,0,0-.32-3,6.32,6.32,0,0,0-1.2-2.32,5.63,5.63,0,0,0-2-1.52,6.89,6.89,0,0,0-2.82-.54,5.71,5.71,0,0,0-4.5,2,7.78,7.78,0,0,0-1.34,2.33,10.8,10.8,0,0,0-.63,3Z"/><path class="cls-3" d="M1366.31,619.37h3.77l.17,3.94a17.22,17.22,0,0,1,2.07-2.1,10.77,10.77,0,0,1,2-1.35,7.44,7.44,0,0,1,2-.72,10,10,0,0,1,2.07-.2,7.15,7.15,0,0,1,5.7,2.22c1.29,1.48,1.93,3.72,1.93,6.7v15.92h-4.23V628.2a6.82,6.82,0,0,0-1.07-4.24,3.77,3.77,0,0,0-3.18-1.38,5.18,5.18,0,0,0-1.52.23,5.79,5.79,0,0,0-1.55.81,12.55,12.55,0,0,0-1.73,1.54c-.63.65-1.33,1.46-2.11,2.43v16.19h-4.23Z"/><path class="cls-3" d="M1403,622.88h-7.22v-3.51h11.5v20.89h7.27v3.52H1395v-3.52h8Zm1.48-13.74a3.32,3.32,0,0,1,1.31.25,3.11,3.11,0,0,1,1.06.72,3.46,3.46,0,0,1,.71,1.06,3.27,3.27,0,0,1,.25,1.3,3.33,3.33,0,0,1-.25,1.29,3.51,3.51,0,0,1-.71,1.07,3.09,3.09,0,0,1-1.06.71,3.43,3.43,0,0,1-2.62,0,3.09,3.09,0,0,1-1.06-.71,3.48,3.48,0,0,1-.7-1.07,3.34,3.34,0,0,1-.26-1.29,3.28,3.28,0,0,1,.26-1.3,3.43,3.43,0,0,1,.7-1.06,3.11,3.11,0,0,1,1.06-.72A3.32,3.32,0,0,1,1404.48,609.14Z"/><path class="cls-3" d="M1444.3,631.38a16.06,16.06,0,0,1-.8,5.22,11.48,11.48,0,0,1-2.31,4.06,10.38,10.38,0,0,1-3.67,2.63,12.32,12.32,0,0,1-4.91.93,12.83,12.83,0,0,1-4.7-.81,9.28,9.28,0,0,1-3.53-2.4,10.65,10.65,0,0,1-2.21-3.91,17.29,17.29,0,0,1-.77-5.38,15.87,15.87,0,0,1,.81-5.19,11.66,11.66,0,0,1,2.3-4,10.41,10.41,0,0,1,3.68-2.63,12.32,12.32,0,0,1,4.91-.93,12.83,12.83,0,0,1,4.7.81,9.42,9.42,0,0,1,3.53,2.38,10.57,10.57,0,0,1,2.21,3.91A17.08,17.08,0,0,1,1444.3,631.38Zm-4.32.2a14.05,14.05,0,0,0-.5-4,8,8,0,0,0-1.42-2.82,5.85,5.85,0,0,0-2.25-1.7,7.27,7.27,0,0,0-3-.58,6.58,6.58,0,0,0-3.24.75,6.29,6.29,0,0,0-2.21,2,8.39,8.39,0,0,0-1.27,2.88,15.48,15.48,0,0,0,.1,7.4,7.92,7.92,0,0,0,1.42,2.83,5.84,5.84,0,0,0,2.24,1.71,7.34,7.34,0,0,0,3,.57,6.7,6.7,0,0,0,3.25-.74,6.41,6.41,0,0,0,2.21-2,8.39,8.39,0,0,0,1.27-2.88A14.91,14.91,0,0,0,1440,631.58Z"/><path class="cls-3" d="M1471.05,643.78h-3.8l-.14-3.94A19,19,0,0,1,1465,642a10.77,10.77,0,0,1-2,1.35,7.31,7.31,0,0,1-2,.71,10,10,0,0,1-2.08.21,7.13,7.13,0,0,1-5.69-2.21q-1.92-2.22-1.92-6.69v-16h4.23V635q0,5.63,4.23,5.62a5.23,5.23,0,0,0,1.52-.23,5.89,5.89,0,0,0,1.55-.8,12.25,12.25,0,0,0,1.75-1.55c.63-.65,1.33-1.47,2.11-2.45v-16.2h4.23Z"/><path class="cls-3" d="M1499.13,637.12a5.84,5.84,0,0,1-.44,2.31,6,6,0,0,1-1.19,1.81,7.3,7.3,0,0,1-1.75,1.35,12.71,12.71,0,0,1-2.13.93,13.94,13.94,0,0,1-2.32.53,17.08,17.08,0,0,1-2.34.17,42.42,42.42,0,0,1-4.55-.22,30.49,30.49,0,0,1-4.08-.7v-3.89a34.91,34.91,0,0,0,4.26.92,28.49,28.49,0,0,0,4.2.32,9.44,9.44,0,0,0,4.5-.83,2.59,2.59,0,0,0,1.46-2.36,3,3,0,0,0-.23-1.18,2.62,2.62,0,0,0-.84-1,7.71,7.71,0,0,0-1.88-1c-.85-.34-2-.73-3.49-1.17a24.62,24.62,0,0,1-3-1.1,9.87,9.87,0,0,1-2.42-1.47,6.32,6.32,0,0,1-1.61-2,5.83,5.83,0,0,1-.58-2.69,6.29,6.29,0,0,1,.47-2.24,6.1,6.1,0,0,1,1.62-2.26,8.88,8.88,0,0,1,3.09-1.74,14.68,14.68,0,0,1,4.86-.69c1,0,2,0,3.19.15a33.87,33.87,0,0,1,3.64.55v3.77a37.67,37.67,0,0,0-3.78-.72,25.3,25.3,0,0,0-3.1-.23,12.52,12.52,0,0,0-2.66.24,5.76,5.76,0,0,0-1.75.67,2.51,2.51,0,0,0-1.25,2.23,2.73,2.73,0,0,0,.25,1.19,2.82,2.82,0,0,0,1,1,9.43,9.43,0,0,0,1.93,1q1.25.49,3.24,1.08a24.74,24.74,0,0,1,3.64,1.33,9.35,9.35,0,0,1,2.41,1.54,5,5,0,0,1,1.33,1.92A7,7,0,0,1,1499.13,637.12Z"/><path class="cls-3" d="M1517.77,636.13a4,4,0,0,1,1.57.31,3.75,3.75,0,0,1,1.29.88,4.15,4.15,0,0,1,1.18,2.89,3.92,3.92,0,0,1-.32,1.56,4,4,0,0,1-.86,1.27,4.06,4.06,0,0,1-4.44.86,4.12,4.12,0,0,1-2.14-2.13,3.91,3.91,0,0,1-.31-1.56,4,4,0,0,1,1.18-2.89,3.86,3.86,0,0,1,1.27-.88A4,4,0,0,1,1517.77,636.13Z"/></g><path class="cls-6" d="M912.41,497.33H889.73V565H879.19V497.33H856.51v-8.9h55.9Z"/><path class="cls-6" d="M976.51,532.49q0,2.18-.06,3.63c0,1-.1,1.9-.17,2.76H935q0,9,5,13.86t14.53,4.83c1.72,0,3.43-.07,5.15-.21s3.38-.32,5-.55,3.14-.5,4.6-.79,2.83-.62,4.08-1v8.38a71.88,71.88,0,0,1-9.41,1.9,78.19,78.19,0,0,1-10.87.74,36.83,36.83,0,0,1-13-2.06,22.09,22.09,0,0,1-8.94-5.94,24.64,24.64,0,0,1-5.16-9.55,45.35,45.35,0,0,1-1.67-12.81A38,38,0,0,1,926.09,524a29.29,29.29,0,0,1,5.22-9.73A24.68,24.68,0,0,1,951,505.13a28.69,28.69,0,0,1,10.9,1.93,22,22,0,0,1,8,5.48,23.31,23.31,0,0,1,4.92,8.61A36.22,36.22,0,0,1,976.51,532.49ZM965.91,531a22.29,22.29,0,0,0-.77-7.18,15.08,15.08,0,0,0-2.9-5.6,13.57,13.57,0,0,0-4.89-3.66,16.4,16.4,0,0,0-6.8-1.32,14.2,14.2,0,0,0-6.09,1.29,13.92,13.92,0,0,0-4.75,3.63,19,19,0,0,0-3.22,5.63A25.78,25.78,0,0,0,935,531Z"/><path class="cls-6" d="M1012.84,490.6h-17.4v-8.38h27.71v74.29h17.52V565H993.5v-8.5h19.34Z"/><path class="cls-6" d="M1108.46,532.49c0,1.45,0,2.66,0,3.63s-.1,1.9-.18,2.76h-41.31q0,9,5,13.86t14.53,4.83q2.58,0,5.16-.21c1.72-.13,3.38-.32,5-.55s3.13-.5,4.6-.79,2.82-.62,4.07-1v8.38a71.71,71.71,0,0,1-9.4,1.9,78.3,78.3,0,0,1-10.87.74,36.88,36.88,0,0,1-13-2.06,22.23,22.23,0,0,1-8.94-5.94,24.5,24.5,0,0,1-5.15-9.55,45,45,0,0,1-1.67-12.81A38,38,0,0,1,1058,524a29.47,29.47,0,0,1,5.22-9.73,24.72,24.72,0,0,1,19.72-9.11,28.63,28.63,0,0,1,10.89,1.93,21.91,21.91,0,0,1,8,5.48,23.31,23.31,0,0,1,4.92,8.61A35.93,35.93,0,0,1,1108.46,532.49Zm-10.6-1.46a22.3,22.3,0,0,0-.76-7.18,15.37,15.37,0,0,0-2.9-5.6,13.53,13.53,0,0,0-4.9-3.66,16.39,16.39,0,0,0-6.79-1.32,14.22,14.22,0,0,0-6.1,1.29,13.88,13.88,0,0,0-4.74,3.63,18.82,18.82,0,0,0-3.23,5.63,26.13,26.13,0,0,0-1.52,7.21Z"/><path class="cls-6" d="M1172.16,564.19a48.75,48.75,0,0,1-7.15,1.26,74.13,74.13,0,0,1-7.5.38q-11.09,0-16.53-5t-5.45-15.38v-30.7h-16.46v-8.56h16.46V490l10.2-2.64v18.81h26.43v8.56h-26.43v29.88q0,6.33,3.37,9.46c2.24,2.09,5.56,3.14,9.93,3.14a47.78,47.78,0,0,0,6.15-.44,57.26,57.26,0,0,0,7-1.38Z"/><path class="cls-6" d="M1238,565h-10.19V527.45q0-6.8-2.55-10.16a8.59,8.59,0,0,0-7.29-3.37,12.87,12.87,0,0,0-3.84.55,13.6,13.6,0,0,0-3.72,1.94,32,32,0,0,0-4.22,3.72c-1.53,1.56-3.28,3.51-5.28,5.86v39h-10.19V482.22h10.19v24l-.35,9.26a40.35,40.35,0,0,1,4.72-4.83,26.23,26.23,0,0,1,4.63-3.2,18.25,18.25,0,0,1,4.72-1.75,22.62,22.62,0,0,1,5-.53q8.79,0,13.59,5.36t4.8,16.14Z"/><path class="cls-6" d="M1307.92,535.13A39,39,0,0,1,1306,547.7a28,28,0,0,1-5.56,9.78,24.91,24.91,0,0,1-8.85,6.33,29.62,29.62,0,0,1-11.84,2.26,30.8,30.8,0,0,1-11.33-2,22.41,22.41,0,0,1-8.5-5.77,25.58,25.58,0,0,1-5.33-9.43,41.55,41.55,0,0,1-1.85-12.95,38.45,38.45,0,0,1,1.94-12.51,28,28,0,0,1,5.56-9.73,25.07,25.07,0,0,1,8.85-6.33,29.62,29.62,0,0,1,11.84-2.25,30.84,30.84,0,0,1,11.33,2,22.58,22.58,0,0,1,8.5,5.74,25.34,25.34,0,0,1,5.33,9.41A41.33,41.33,0,0,1,1307.92,535.13Zm-10.43.47a33.76,33.76,0,0,0-1.2-9.52,19.16,19.16,0,0,0-3.43-6.8,14.05,14.05,0,0,0-5.42-4.1,17.77,17.77,0,0,0-7.12-1.38,16,16,0,0,0-7.82,1.79,15.4,15.4,0,0,0-5.33,4.77,20.42,20.42,0,0,0-3.05,6.95,37.3,37.3,0,0,0,.23,17.84,19,19,0,0,0,3.43,6.82,14.16,14.16,0,0,0,5.39,4.11,17.88,17.88,0,0,0,7.15,1.37,16,16,0,0,0,7.82-1.78,15.52,15.52,0,0,0,5.33-4.78,20.45,20.45,0,0,0,3-6.94A34.8,34.8,0,0,0,1297.49,535.6Z"/><path class="cls-6" d="M1322.68,506.18h9.08l.41,9.49a41.37,41.37,0,0,1,5-5.06,27.25,27.25,0,0,1,4.71-3.26,17.7,17.7,0,0,1,4.72-1.72,23.9,23.9,0,0,1,5-.5q9.08,0,13.74,5.36t4.66,16.14V565h-10.2V527.45q0-6.91-2.58-10.22c-1.72-2.21-4.27-3.31-7.67-3.31a12.25,12.25,0,0,0-3.66.55,13.32,13.32,0,0,0-3.72,1.94,30.73,30.73,0,0,0-4.19,3.72q-2.27,2.34-5.07,5.86v39h-10.2Z"/></svg>